<?xml version="1.0" standalone="yes"?>
<svg xmlns="http://www.w3.org/2000/svg" width="1280" height="1280">
<path style="fill:#010101; stroke:none;" d="M0 0L0 1280L1280 1280L1280 0L0 0z"/>
<path style="fill:#ff0d57; stroke:none;" d="M33 242L33 434L306 434L234.004 496.272L117 597.246L57 648.95L34.0278 670.015L33 687L33 725L33 863L443 863L558 863L590 863L603.682 862.397L606 852L606 821L606 708L606 681L604.397 671.028L585 670L534 670L333 670C352.003 648.172 378.205 630.911 399.985 611.87C443.756 573.604 487.689 535.562 531.95 497.87C549.318 483.08 566.442 468.014 583.83 453.235C590.481 447.583 598.599 437.314 607.004 434.564C619.324 430.533 638.029 434 651 434L651 740L651 826C651 835.078 647.596 852.538 651.603 860.682C653.254 864.036 658.963 863 662 863L693 863L806 863L833 863C835.803 863 840.975 863.918 842.972 861.397C845.301 858.457 844 851.531 844 848L844 813L844 675L944 775C977.111 808.111 1009.09 840.764 1055 854.975C1099.2 868.656 1149.31 863 1195 863L1229 863C1232.53 863 1239.46 864.301 1242.4 861.972C1245.22 859.739 1244 853.151 1244 850L1244 818L1244 714L1244 685C1244 681.348 1245.05 675.674 1243.4 672.318C1241.28 668.025 1229.98 670 1226 670L1171 670C1153.62 670 1135.42 671.035 1119 664.124C1105.61 658.49 1096.97 648.025 1086.99 638.015C1073.85 624.841 1060.17 612.167 1047 599C1038.08 590.079 1028.45 581.834 1019.96 572.482C1017.57 569.851 1012.49 565.926 1012.88 562C1013.61 554.704 1023.94 544.088 1028 538C1041.61 517.591 1055.47 497.354 1069.16 477C1104.7 424.181 1139.95 371.136 1175 318C1185.59 301.948 1196.23 285.905 1207.03 270C1213.1 261.061 1220.79 251.983 1225 242L1070 242L1025 242C1019.12 242 1010.58 240.442 1005.04 242.603C999.343 244.829 995.404 254.136 992.167 259C982.604 273.367 972.907 287.64 963.333 302L883.333 422C871.085 440.372 852.818 460.375 845 481L844 481L844 242L33 242z"/>
<path style="fill:#ff109d; stroke:none;" d="M1223 244L1224 245L1223 244M999 248L1000 249L999 248M1220 249L1221 250L1220 249M995 254L996 255L995 254M1216 255L1217 256L1216 255M991 260L992 261L991 260M1212 261L1213 262L1212 261M987 266L988 267L987 266M1208 267L1209 268L1208 267z"/>
<path style="fill:#9d0120; stroke:none;" d="M1206 270L1207 271L1206 270z"/>
<path style="fill:#ff109d; stroke:none;" d="M983 272L984 273L983 272M1204 273L1205 274L1204 273M979 278L980 279L979 278M1200 279L1201 280L1200 279z"/>
<path style="fill:#9d0120; stroke:none;" d="M1198 282L1199 283L1198 282z"/>
<path style="fill:#ff109d; stroke:none;" d="M1196 285L1197 286L1196 285M1192 291L1193 292L1192 291z"/>
<path style="fill:#9d0120; stroke:none;" d="M1190 294L1191 295L1190 294z"/>
<path style="fill:#ff109d; stroke:none;" d="M1188 297L1189 298L1188 297z"/>
<path style="fill:#9d0120; stroke:none;" d="M1186 300L1187 301L1186 300z"/>
<path style="fill:#ff109d; stroke:none;" d="M1184 303L1185 304L1184 303z"/>
<path style="fill:#9d0120; stroke:none;" d="M1182 306L1183 307L1182 306z"/>
<path style="fill:#ff109d; stroke:none;" d="M1180 309L1181 310L1180 309z"/>
<path style="fill:#9d0120; stroke:none;" d="M1178 312L1179 313L1178 312z"/>
<path style="fill:#ff109d; stroke:none;" d="M955 314L956 315L955 314M1176 315L1177 316L1176 315z"/>
<path style="fill:#9d0120; stroke:none;" d="M1174 318L1175 319L1174 318z"/>
<path style="fill:#ff109d; stroke:none;" d="M951 320L952 321L951 320M1172 321L1173 322L1172 321M947 326L948 327L947 326M1168 327L1169 328L1168 327z"/>
<path style="fill:#9d0120; stroke:none;" d="M945 329L946 330L945 329z"/>
<path style="fill:#ff109d; stroke:none;" d="M943 332L944 333L943 332M1164 333L1165 334L1164 333M939 338L940 339L939 338M1160 339L1161 340L1160 339z"/>
<path style="fill:#9d0120; stroke:none;" d="M937 341L938 342L937 341z"/>
<path style="fill:#ff109d; stroke:none;" d="M935 344L936 345L935 344M1156 345L1157 346L1156 345z"/>
<path style="fill:#9d0120; stroke:none;" d="M1153 349L1154 350L1153 349z"/>
<path style="fill:#ff109d; stroke:none;" d="M1152 351L1153 352L1152 351z"/>
<path style="fill:#9d0120; stroke:none;" d="M1145 361L1146 362L1145 361z"/>
<path style="fill:#ff109d; stroke:none;" d="M1144 363L1145 364L1144 363z"/>
<path style="fill:#9d0120; stroke:none;" d="M1141 367L1142 368L1141 367z"/>
<path style="fill:#ff109d; stroke:none;" d="M1139 370L1140 371L1139 370M1136 375L1137 376L1136 375M1135 376L1136 377L1135 376M911 380L912 381L911 380M1131 382L1132 383L1131 382M907 386L908 387L907 386M1128 387L1129 388L1128 387M1127 388L1128 389L1127 388M903 392L904 393L903 392M1123 394L1124 395L1123 394M899 398L900 399L899 398M1120 399L1121 400L1120 399M1119 400L1120 401L1119 400M895 404L896 405L895 404M1115 406L1116 407L1115 406M891 410L892 411L891 410M1111 412L1112 413L1111 412M1107 418L1108 419L1107 418z"/>
<path style="fill:#9d0120; stroke:none;" d="M1105 421L1106 422L1105 421z"/>
<path style="fill:#ff109d; stroke:none;" d="M1103 424L1104 425L1103 424z"/>
<path style="fill:#9d0120; stroke:none;" d="M1101 427L1102 428L1101 427z"/>
<path style="fill:#ff109d; stroke:none;" d="M1099 430L1100 431L1099 430z"/>
<path style="fill:#9d0120; stroke:none;" d="M1097 433L1098 434L1097 433z"/>
<path style="fill:#ff109d; stroke:none;" d="M1095 436L1096 437L1095 436M601 437L602 438L601 437M300 439L301 440L300 439z"/>
<path style="fill:#9d0120; stroke:none;" d="M1093 439L1094 440L1093 439z"/>
<path style="fill:#ff109d; stroke:none;" d="M595 442L596 443L595 442M1091 442L1092 443L1091 442M593 444L594 445L593 444M1087 448L1088 449L1087 448z"/>
<path style="fill:#9d0120; stroke:none;" d="M586 450L587 451L586 450z"/>
<path style="fill:#ff109d; stroke:none;" d="M285 452L286 453L285 452z"/>
<path style="fill:#ffa1a1; stroke:none;" d="M579 456L580 457L579 456z"/>
<path style="fill:#ff109d; stroke:none;" d="M578 457L579 458L578 457z"/>
<path style="fill:#9d0120; stroke:none;" d="M278 458L279 459L278 458z"/>
<path style="fill:#ff109d; stroke:none;" d="M1079 460L1080 461L1079 460z"/>
<path style="fill:#9d0120; stroke:none;" d="M573 461L574 462L573 461z"/>
<path style="fill:#ff109d; stroke:none;" d="M271 464L272 465L271 464M564 469L565 470L564 469M563 470L564 471L563 470z"/>
<path style="fill:#9d0120; stroke:none;" d="M558 474L559 475L558 474z"/>
<path style="fill:#ff109d; stroke:none;" d="M557 475L558 476L557 475M553 478L554 479L553 478M552 479L553 480L552 479M551 480L552 481L551 480M550 481L551 482L550 481M549 482L550 483L549 482M249 483L250 484L249 483M543 487L544 488L543 487M242 489L243 490L242 489M537 492L538 493L537 492M536 493L537 494L536 493M535 494L536 495L535 494z"/>
<path style="fill:#9d0120; stroke:none;" d="M529 499L530 500L529 499M528 500L529 501L528 500z"/>
<path style="fill:#ff109d; stroke:none;" d="M227 502L228 503L227 502M523 504L524 505L523 504z"/>
<path style="fill:#9d0120; stroke:none;" d="M1049 505L1050 506L1049 505z"/>
<path style="fill:#ff109d; stroke:none;" d="M521 506L522 507L521 506z"/>
<path style="fill:#9d0120; stroke:none;" d="M516 510L517 511L516 510z"/>
<path style="fill:#ff109d; stroke:none;" d="M213 514L214 515L213 514z"/>
<path style="fill:#9d0120; stroke:none;" d="M1041 517L1042 518L1041 517z"/>
<path style="fill:#ff109d; stroke:none;" d="M507 518L508 519L507 518M506 519L507 520L506 519z"/>
<path style="fill:#9d0120; stroke:none;" d="M500 524L501 525L500 524z"/>
<path style="fill:#ff109d; stroke:none;" d="M499 525L500 526L499 525M199 526L200 527L199 526M1035 526L1036 527L1035 526M495 528L496 529L495 528M494 529L495 530L494 529M1033 529L1034 530L1033 529M492 531L493 532L492 531z"/>
<path style="fill:#ffa1a1; stroke:none;" d="M491 532L492 533L491 532M1031 532L1032 533L1031 532z"/>
<path style="fill:#ff109d; stroke:none;" d="M1029 535L1030 536L1029 535M1027 538L1028 539L1027 538M184 539L185 540L184 539M1025 541L1026 542L1025 541M479 542L480 543L479 542M478 543L479 544L478 543M477 544L478 545L477 544z"/>
<path style="fill:#ffa1a1; stroke:none;" d="M1023 544L1024 545L1023 544z"/>
<path style="fill:#ff109d; stroke:none;" d="M177 545L178 546L177 545M1021 547L1022 548L1021 547M1019 550L1020 551L1019 550M465 554L466 555L465 554z"/>
<path style="fill:#ffa1a1; stroke:none;" d="M463 556L464 557L463 556M1015 556L1016 557L1015 556z"/>
<path style="fill:#ff109d; stroke:none;" d="M462 557L463 558L462 557M1013 559L1014 560L1013 559z"/>
<path style="fill:#9d0120; stroke:none;" d="M458 560L459 561L458 560z"/>
<path style="fill:#ff109d; stroke:none;" d="M1011 562L1012 563L1011 562M155 564L156 565L155 564M449 568L450 569L449 568M447 570L448 571L447 570M1019 572L1020 573L1019 572z"/>
<path style="fill:#9d0120; stroke:none;" d="M442 574L443 575L442 574z"/>
<path style="fill:#ff109d; stroke:none;" d="M1021 574L1022 575L1021 574M141 576L142 577L141 576M1023 576L1024 577L1023 576M1025 578L1026 579L1025 578M436 579L437 580L436 579M1027 580L1028 581L1027 580M434 581L435 582L434 581M433 582L434 583L433 582M1029 582L1030 583L1029 582M1031 584L1032 585L1031 584z"/>
<path style="fill:#9d0120; stroke:none;" d="M429 585L430 586L429 585z"/>
<path style="fill:#ff109d; stroke:none;" d="M1032 585L1033 586L1032 585M1033 586L1034 587L1033 586M420 593L421 594L420 593M419 594L420 595L419 594M119 595L120 596L119 595z"/>
<path style="fill:#9d0120; stroke:none;" d="M414 598L415 599L414 598M413 599L414 600L413 599z"/>
<path style="fill:#ff109d; stroke:none;" d="M407 604L408 605L407 604M405 606L406 607L405 606z"/>
<path style="fill:#9d0120; stroke:none;" d="M104 608L105 609L104 608z"/>
<path style="fill:#ff109d; stroke:none;" d="M97 614L98 615L97 614M391 618L392 619L391 618M390 619L391 620L390 619z"/>
<path style="fill:#9d0120; stroke:none;" d="M385 623L386 624L385 623z"/>
<path style="fill:#ff109d; stroke:none;" d="M83 626L84 627L83 626M378 629L379 630L378 629M376 631L377 632L376 631z"/>
<path style="fill:#ffa1a1; stroke:none;" d="M375 632L376 633L375 632z"/>
<path style="fill:#ff109d; stroke:none;" d="M362 643L363 644L362 643M361 644L362 645L361 644z"/>
<path style="fill:#9d0120; stroke:none;" d="M1092 644L1093 645L1092 644M1093 645L1094 646L1093 645M1094 646L1095 647L1094 646M356 648L357 649L356 648M1096 648L1097 649L1096 648z"/>
<path style="fill:#ff109d; stroke:none;" d="M355 649L356 650L355 649z"/>
<path style="fill:#9d0120; stroke:none;" d="M1097 649L1098 650L1097 649M1098 650L1099 651L1098 650z"/>
<path style="fill:#ff109d; stroke:none;" d="M54 651L55 652L54 651M349 654L350 655L349 654M347 656L348 657L347 656M1106 657L1107 658L1106 657M1109 659L1110 660L1109 659z"/>
<path style="fill:#9d0120; stroke:none;" d="M340 662L341 663L340 662z"/>
<path style="fill:#ff109d; stroke:none;" d="M40 663L41 664L40 663M39 664L40 665L39 664z"/>
<path style="fill:#ffa1a1; stroke:none;" d="M1119 664L1120 665L1119 664z"/>
<path style="fill:#ff109d; stroke:none;" d="M1122 665L1123 666L1122 665M333 668L334 669L333 668M605 670L606 671L605 670M1243 670L1244 671L1243 670M977 807L978 808L977 807M989 818L990 819L989 818z"/>
<path style="fill:#9d0120; stroke:none;" d="M994 822L995 823L994 822z"/>
<path style="fill:#ff109d; stroke:none;" d="M1037 848L1038 849L1037 848M1064 857L1065 858L1064 857M605 862L606 863L605 862M843 862L844 863L843 862M1243 862L1244 863L1243 862z"/>
</svg>
