<?xml version="1.0" standalone="no"?>
<!DOCTYPE svg PUBLIC "-//W3C//DTD SVG 20010904//EN"
 "http://www.w3.org/TR/2001/REC-SVG-20010904/DTD/svg10.dtd">
<svg version="1.0" xmlns="http://www.w3.org/2000/svg"
 width="150.000000pt" height="132.000000pt" viewBox="0 0 1280.000000 1280.000000"
 preserveAspectRatio="xMidYMid meet">

<g transform="translate(0.000000,1280.000000) scale(0.100000,-0.100000)"
fill="#000000" stroke="none">
<path d="M330 9420 l0 -950 1383 0 1382 -1 -50 -45 c-27 -25 -649 -561 -1382
-1192 l-1332 -1147 -1 -952 0 -953 2855 0 2855 0 0 950 0 950 -1376 0 c-903 0
-1375 3 -1372 10 2 5 622 543 1378 1195 l1374 1185 238 0 238 0 0 -2145 0
-2145 950 0 950 0 0 950 c0 523 3 950 7 950 4 0 334 -326 733 -723 770 -768
825 -818 1037 -939 190 -107 392 -178 606 -214 88 -15 204 -18 860 -21 l757
-4 0 949 0 950 -517 4 -518 4 -97 27 c-120 32 -169 53 -234 103 -28 21 -257
243 -509 492 l-458 453 1062 1590 c584 874 1064 1596 1067 1604 5 13 -118 15
-1083 15 l-1090 0 -809 -1212 -809 -1213 -3 1213 -2 1212 -4045 0 -4045 0 0
-950z"/>
<path d="M11290 4039 c-115 -23 -221 -107 -274 -219 l-31 -65 -3 -342 -3 -343
115 0 115 0 3 313 c3 291 4 314 23 346 57 97 184 106 249 18 20 -27 21 -45 26
-350 l5 -322 118 -3 117 -3 0 311 c0 292 1 313 20 350 23 45 80 80 131 80 42
0 102 -35 125 -73 17 -29 19 -60 24 -347 l5 -315 115 0 115 0 3 270 c3 307 -5
400 -41 478 -51 111 -157 193 -284 217 -100 20 -210 -8 -301 -77 l-32 -24 -30
24 c-41 35 -107 65 -169 77 -61 11 -78 11 -141 -1z"/>
<path d="M10357 4020 c-179 -28 -339 -184 -378 -368 -16 -77 -6 -203 21 -274
48 -128 159 -236 288 -280 63 -21 83 -22 327 -23 l260 0 3 118 3 117 -237 0
c-267 0 -294 5 -359 62 -99 87 -106 241 -16 341 58 65 95 77 247 77 88 0 134
-4 142 -12 18 -18 15 -95 -4 -102 -9 -3 -87 -6 -175 -6 l-159 0 0 -121 0 -121
193 4 c175 3 196 5 233 25 64 34 97 66 129 125 27 47 30 62 30 143 0 105 -20
159 -80 218 -70 68 -111 81 -270 83 -77 2 -166 -1 -198 -6z"/>
<path d="M6834 3996 c-64 -30 -120 -85 -148 -145 -31 -68 -30 -189 3 -253 29
-57 81 -109 141 -140 42 -21 60 -23 260 -28 l214 -5 13 -25 c14 -28 8 -59 -15
-77 -12 -10 -87 -13 -294 -13 l-278 0 0 -115 0 -115 308 0 308 0 52 26 c110
55 168 159 160 288 -8 114 -64 198 -167 248 -43 21 -61 23 -256 26 -127 2
-215 8 -222 14 -7 6 -13 25 -13 44 0 62 11 64 317 64 l273 0 0 115 0 115 -302
0 c-298 0 -304 -1 -354 -24z"/>
<path d="M7630 4015 c0 -3 61 -146 135 -317 130 -300 134 -312 118 -331 -33
-36 -77 -51 -163 -57 l-85 -5 0 -115 0 -115 47 -3 c82 -5 187 15 256 49 128
63 151 96 430 619 72 135 134 253 138 263 6 16 -3 17 -127 15 l-133 -3 -93
-174 c-51 -96 -96 -178 -101 -183 -5 -5 -43 70 -88 174 l-79 183 -128 3 c-70
1 -127 0 -127 -3z"/>
<path d="M9230 4016 c0 -15 247 -710 266 -747 12 -25 44 -66 69 -92 77 -76
167 -107 306 -107 l69 0 0 120 0 120 -95 0 c-90 0 -98 2 -119 25 -18 20 -116
271 -116 299 0 3 36 6 80 6 l80 0 0 120 0 120 -124 0 -124 0 -23 68 -24 67
-122 3 c-68 1 -123 1 -123 -2z"/>
<path d="M8896 3995 c-52 -18 -139 -80 -169 -118 -37 -50 -55 -88 -129 -286
-81 -216 -89 -232 -124 -260 -22 -18 -41 -21 -110 -21 l-84 0 0 -120 0 -120
63 0 c77 0 171 17 212 37 50 25 113 81 146 130 17 24 65 135 106 245 89 242
93 250 136 277 28 17 50 21 126 21 l91 0 0 115 0 115 -112 0 c-70 -1 -128 -6
-152 -15z"/>
</g>
</svg>
